<svg width="34" height="23" viewBox="0 0 34 23" fill="none" xmlns="http://www.w3.org/2000/svg">
<path d="M0 16.5303C0 14.4226 1.36832 11.6884 4.10495 8.32764C6.84158 4.96684 9.57821 2.46048 12.3148 0.808563L15.3395 3.37188C13.7552 4.51113 12.3508 5.87824 11.1266 7.47319C9.90228 9.06815 9.03808 10.6916 8.53397 12.3435C10.0463 12.9131 11.3066 13.6536 12.3148 14.565C13.3951 15.4195 13.9352 16.217 13.9352 16.9575C13.9352 17.9828 13.215 19.1505 11.7747 20.4607C10.4064 21.7139 9.03808 22.3404 7.66977 22.3404C6.73355 22.3404 5.6533 22.0841 4.42902 21.5715C3.20474 21.0018 2.1605 20.2898 1.2963 19.4354C0.432099 18.5239 0 17.5556 0 16.5303ZM33.4877 3.37188C31.9754 4.51113 30.6071 5.87824 29.3828 7.47319C28.1585 9.06815 27.2943 10.6916 26.7902 12.3435C28.3025 12.9131 29.5628 13.6536 30.5711 14.565C31.5793 15.4195 32.0834 16.217 32.0834 16.9575C32.0834 17.9828 31.3632 19.1505 29.9229 20.4607C28.5546 21.7139 27.2223 22.3404 25.926 22.3404C24.9898 22.3404 23.9095 22.0841 22.6852 21.5715C21.461 21.0018 20.4167 20.2898 19.5525 19.4354C18.6883 18.5239 18.2562 17.5556 18.2562 16.5303C18.2562 14.4226 19.6245 11.6884 22.3612 8.32764C25.0978 4.96684 27.8344 2.46048 30.5711 0.808563L33.4877 3.37188Z" fill="white"/>
</svg>
